<svg xmlns="http://www.w3.org/2000/svg" xmlns:xlink="http://www.w3.org/1999/xlink" viewBox="0 0 26 32.5" version="1.1" x="0px" y="0px"><title>Caucation, dul, interogation, isolateda, person, portrait, quetion</title><desc>Created with Sketch.</desc><g stroke="none" stroke-width="1" fill="none" fill-rule="evenodd"><g transform="translate(-35.000000, -291.000000)" fill="white" fill-rule="nonzero"><g transform="translate(35.000000, 291.000000)"><path d="M13,26 C5.82029825,26 0,20.1797017 0,13 C0,5.82029825 5.82029825,0 13,0 C20.1797017,0 26,5.82029825 26,13 C26,20.1797017 20.1797017,26 13,26 Z M13,24 C19.0751322,24 24,19.0751322 24,13 C24,6.92486775 19.0751322,2 13,2 C6.92486775,2 2,6.92486775 2,13 C2,19.0751322 6.92486775,24 13,24 Z M17,11 C17,12.6568542 15.6568542,14 14,14 L14,16 C14,16.5522847 13.5522847,17 13,17 C12.4477153,17 12,16.5522847 12,16 L12,13 C12,12.4477153 12.4477153,12 13,12 L14,12 C14.5522847,12 15,11.5522847 15,11 L15,9 C15,8.44771525 14.5522847,8 14,8 L12,8 C11.4477153,8 11,8.44771525 11,9 C11,9.55228475 10.5522847,10 10,10 C9.44771525,10 9,9.55228475 9,9 C9,7.34314575 10.3431458,6 12,6 L14,6 C15.6568542,6 17,7.34314575 17,9 L17,11 Z M13,20 C12.4477153,20 12,19.5522847 12,19 C12,18.4477153 12.4477153,18 13,18 C13.5522847,18 14,18.4477153 14,19 C14,19.5522847 13.5522847,20 13,20 Z"/></g></g></g></svg>