<svg xmlns="http://www.w3.org/2000/svg" fill="white" viewBox="0 0 64 80" x="0px" y="0px"><title>letter, paper, writing, ink, feather</title><g><path d="M44.361,24.675a26.841,26.841,0,0,0-1.185,3.73c-.141-.216-.28-.429-.413-.635a1,1,0,0,0-1.774.181,20.73,20.73,0,0,0-.747,10.413L36.3,42.291a1,1,0,0,0,1.41,1.418l3.958-3.937a18.858,18.858,0,0,0,3.247.3A17.627,17.627,0,0,0,57.393,35c4.1-4.077,7.594-11.864,6.35-17.839a1,1,0,0,0-.778-.775,17.865,17.865,0,0,0-16.3,4.7A10.267,10.267,0,0,0,44.361,24.675ZM61.9,18.226c.734,5.218-2.345,11.808-5.915,15.36a15.716,15.716,0,0,1-12.527,4.4L56.3,25.211a1,1,0,1,0-1.41-1.418L42.019,36.6a19.776,19.776,0,0,1,.258-5.934c.556.824,1,1.47,1.01,1.481A1,1,0,0,0,45,31.125c-.209-.415-.186-2.089,1.224-5.727a8.3,8.3,0,0,1,1.87-2.907A15.817,15.817,0,0,1,61.9,18.226ZM63,54H52V42a1,1,0,0,0-2,0V54H19a1,1,0,0,0-1,1v3a4,4,0,0,1-8,0V40.414l2.707-2.707a1,1,0,0,0,0-1.414L10,33.586V5A5.268,5.268,0,0,0,9,2H47a3,3,0,0,1,3,3V15a1,1,0,0,0,2,0V5a5.006,5.006,0,0,0-5-5H5A5.006,5.006,0,0,0,0,5V27a1,1,0,0,0,1,1H8v6a1,1,0,0,0,.293.707L10.586,37,8.293,39.293A1,1,0,0,0,8,40V58a6.006,6.006,0,0,0,6,6H58a6.006,6.006,0,0,0,6-6V55A1,1,0,0,0,63,54ZM2,26V5A3,3,0,0,1,8,5V26ZM62,58a4,4,0,0,1-4,4H18.468A6.072,6.072,0,0,0,20,58V56H62ZM14,49a1,1,0,0,1,1-1H45a1,1,0,0,1,0,2H15A1,1,0,0,1,14,49Zm0-6a1,1,0,0,1,1-1H33a1,1,0,0,1,0,2H15A1,1,0,0,1,14,43Zm22-6a1,1,0,0,1-1,1H16a1,1,0,0,1,0-2H35A1,1,0,0,1,36,37ZM14,31a1,1,0,0,1,1-1H35a1,1,0,0,1,0,2H15A1,1,0,0,1,14,31Zm0-6a1,1,0,0,1,1-1H39a1,1,0,0,1,0,2H15A1,1,0,0,1,14,25Zm0-6a1,1,0,0,1,1-1H45a1,1,0,0,1,0,2H15A1,1,0,0,1,14,19Zm0-6a1,1,0,0,1,1-1H45a1,1,0,0,1,0,2H15A1,1,0,0,1,14,13Zm0-6a1,1,0,0,1,1-1H45a1,1,0,0,1,0,2H15A1,1,0,0,1,14,7Z"/></g></svg>